<?xml version="1.0" encoding="utf-8"?>
<!-- Uploaded to: SVG Repo, www.svgrepo.com, Generator: SVG Repo Mixer Tools -->
<svg width="800px" height="800px" viewBox="0 -25.13 181.21 181.21" xmlns="http://www.w3.org/2000/svg">

<defs>

<style>.cls-1{fill:#ffffff;}</style>

</defs>

<g id="Layer_2" data-name="Layer 2">

<g id="Layer_1-2" data-name="Layer 1">

<path d="M.84,41.7c8-9.23,18-14.28,29-18.22C50.38,16.08,71.58,11.56,93.08,8.2c16.66-2.61,33.31-5.26,50-7.84,11.06-1.72,19.57,2.8,24.23,13.09a107.35,107.35,0,0,1,8.53,26.89c.73,4.48,2,8.89,3.13,13.3,2.14,8.41,2.32,17,2.24,25.57-.07,6.7-4.4,11-8.63,15.22a46.65,46.65,0,0,1-14.84,10.08c-8.16,3.41-16.42,6.65-24.8,9.49-8.65,2.94-17.47,5.42-26.28,7.88-4.39,1.23-8.92,2-13.38,3A243.92,243.92,0,0,1,43.07,131c-6.26.09-12.55-.08-18.58-2.42-6.33-2.45-10.67-6.76-12.5-13.2C8.07,101.6,3.2,88.11,1.42,73.83.08,63-.68,52.21.84,41.7Zm72.8,30.1c-2.82,3-5.48,5.64-7.82,8.49-4.54,5.53-8.92,11.19-13.33,16.83-5.1,6.52-10.23,13-15.18,19.65-.66.89-.35,2.51-.54,4.29,3.43.16,6.28.52,9.1.39,5.13-.26,10.25-.86,15.37-1.21A197.9,197.9,0,0,0,96.75,114c13.84-3.56,27.45-8,41.06-12.46a138.64,138.64,0,0,0,16.63-6.94c3.82-1.82,7.51-4.09,9.64-8.71-16.19-6-30.16-15.42-44.66-24.34a60.58,60.58,0,0,0-5,3.95c-2,2-3.71,4.39-5.79,6.35-4.15,3.93-8.71,6-14.8,4.29C87.53,74.33,81,73.34,73.64,71.8ZM17.76,41.21c.42.73.57,1.46,1,1.66C27,46.8,34.93,51.2,44.1,53s18.28,4.66,27.4,7.09c5,1.32,9.88,2.89,14.89,4.07,11.84,2.79,11.88,2.75,20.15-5.91,7.7-8.08,15.68-15.92,22.85-24.45,5.3-6.32,9.49-13.56,14.11-20.44.43-.63.35-1.6.6-2.94a37.05,37.05,0,0,0-4.29.22c-19.48,3.21-39,6.37-58.43,9.75a303.33,303.33,0,0,0-52.15,14C25,35.92,20.6,37.39,17.76,41.21Zm-6.11,12C10.4,68.68,18.08,104.54,25,113.08c7.22-6.19,11.32-14.8,17.23-21.93,6.09-7.36,12.37-14.63,18-22.81a21.27,21.27,0,0,0-3.48-1.73c-5-1.27-10-2.29-15-3.66-9.5-2.63-19.53-3.78-27.89-9.71C13.58,53,12.86,53.21,11.65,53.21ZM154.44,16.4c-4.55,10.31-11.17,18.15-17.9,25.92-2.24,2.58-4.65,5-6.87,7.65a20.07,20.07,0,0,0-1.91,3.32c13.79,10.57,31.78,20.11,40.8,21.76,2.91-6.26-2.18-22.46-6.43-41.73C159.76,22.6,158.74,21.19,154.44,16.4Z"/>

<path class="cls-1" d="M73.64,71.8c7.34,1.54,13.89,2.53,20.2,4.36,6.09,1.76,10.65-.36,14.8-4.29,2.08-2,3.76-4.33,5.79-6.35a60.58,60.58,0,0,1,5-3.95c14.5,8.92,28.47,18.38,44.66,24.34-2.13,4.62-5.82,6.89-9.64,8.71a138.64,138.64,0,0,1-16.63,6.94C124.2,106,110.59,110.46,96.75,114a197.9,197.9,0,0,1-35.51,6.22c-5.12.35-10.24,1-15.37,1.21-2.82.13-5.67-.23-9.1-.39.19-1.78-.12-3.4.54-4.29,4.95-6.63,10.08-13.13,15.18-19.65,4.41-5.64,8.79-11.3,13.33-16.83C68.16,77.44,70.82,74.84,73.64,71.8Z"/>

<path class="cls-1" d="M17.76,41.21c2.84-3.82,7.23-5.29,11.47-6.83a303.33,303.33,0,0,1,52.15-14c19.45-3.38,39-6.54,58.43-9.75a37.05,37.05,0,0,1,4.29-.22c-.25,1.34-.17,2.31-.6,2.94-4.62,6.88-8.81,14.12-14.11,20.44-7.17,8.53-15.15,16.37-22.85,24.45-8.27,8.66-8.31,8.7-20.15,5.91-5-1.18-9.92-2.75-14.89-4.07C62.38,57.69,53.33,54.87,44.1,53S27,46.8,18.74,42.87C18.33,42.67,18.18,41.94,17.76,41.21Z"/>

<path class="cls-1" d="M11.65,53.21c1.21,0,1.93-.23,2.3,0,8.36,5.93,18.39,7.08,27.89,9.71,4.95,1.37,10,2.39,15,3.66a21.27,21.27,0,0,1,3.48,1.73c-5.67,8.18-12,15.45-18,22.81-5.91,7.13-10,15.74-17.23,21.93C18.08,104.54,10.4,68.68,11.65,53.21Z"/>

<path class="cls-1" d="M154.44,16.4c4.3,4.79,5.32,6.2,7.69,16.92,4.25,19.27,9.34,35.47,6.43,41.73-9-1.65-27-11.19-40.8-21.76A20.07,20.07,0,0,1,129.67,50c2.22-2.62,4.63-5.07,6.87-7.65C143.27,34.55,149.89,26.71,154.44,16.4Z"/>

</g>

</g>

</svg>